<?xml version="1.0" encoding="utf-8"?>
<!-- Generator: Adobe Illustrator 19.2.1, SVG Export Plug-In . SVG Version: 6.00 Build 0)  -->
<svg version="1.1" id="layer" xmlns="http://www.w3.org/2000/svg" xmlns:xlink="http://www.w3.org/1999/xlink" x="0px" y="0px"
	 viewBox="0 0 652 652" style="enable-background:new 0 0 652 652;" xml:space="preserve">
<g>
	<path d="M98.8,329c7.9,0,13.3-4.3,13.3-11.7c0-7.4-5.4-11.2-13.3-11.2H58.3V329H98.8z M58.3,283.9h37.5c8.1,0,11.5-4.4,11.5-9.7
		c0-5.1-3.5-9.5-11.5-9.5H58.3V283.9z M20.7,240.4h93.5c27.4,0,32.1,16.9,32.1,27.8c0,10.6-5.8,19.8-13.9,22.8v0.3
		c11.9,2.7,19.6,12.3,19.6,28.3c0,13.4-6.3,33.7-41,33.7H20.7V240.4z"/>
	<path d="M217.9,268.9h-0.3l-15.7,42.7h31.6L217.9,268.9z M194.9,240.4h46l48.6,112.9h-40.3l-6.8-18.3H193l-6.8,18.3h-40.3
		L194.9,240.4z"/>
	<path d="M327.2,290.4h36.2c9.2,0,14.1-4.7,14.1-12.5c0-7.4-4.9-12.2-14.1-12.2h-36.2V290.4z M289.5,240.4H380
		c27.7,0,37.8,12.7,37.8,31.5c0,15-7.9,23.3-18,25.8v0.3c7.1,2.4,12.7,8.1,13.6,20.2c1.7,22.3,2.4,29.4,7.1,35.1h-41.3
		c-2.1-4.9-2.2-11.5-2.2-16.8c0-17.7-5.8-20.9-15.3-20.9h-34.5v37.6h-37.6V240.4z"/>
	<rect x="433.1" y="240.4" width="37.6" height="112.9"/>
	<polygon points="528.3,294.6 484.5,240.4 529.3,240.4 550,270.8 570.7,240.4 615.5,240.4 571.7,294.6 620.7,353.3 574,353.3 
		550,319.2 526,353.3 479.3,353.3 	"/>
	<polygon points="104.8,379 104.8,377.6 124.5,377.6 124.5,379 115.4,379 115.4,403.4 113.9,403.4 113.9,379 	"/>
	<polygon points="128.9,390.7 128.9,403.4 127.3,403.4 127.3,377.6 128.9,377.6 128.9,389.3 145.3,389.3 145.3,377.6 146.9,377.6 
		146.9,403.4 145.3,403.4 145.3,390.7 	"/>
	<polygon points="169.9,402 169.9,403.4 152.4,403.4 152.4,377.6 169.7,377.6 169.7,379 154,379 154,389.3 168.8,389.3 168.8,390.7 
		154,390.7 154,402 	"/>
	<polygon points="192.1,402 192.2,402 201.1,377.6 202.7,377.6 193.1,403.4 191.2,403.4 181.7,377.6 183.3,377.6 	"/>
	<path d="M215.5,402.6c6.7,0,10.6-5.5,10.6-12.1c0-6.6-3.9-12.1-10.6-12.1c-6.7,0-10.7,5.5-10.7,12.1
		C204.8,397.1,208.7,402.6,215.5,402.6 M215.5,404c-7.7,0-12.3-5.9-12.3-13.5c0-7.5,4.5-13.5,12.3-13.5c7.7,0,12.2,6,12.2,13.5
		C227.7,398,223.2,404,215.5,404"/>
	<rect x="232" y="377.6" width="1.6" height="25.8"/>
	<path d="M258.9,385.3c-0.7-4.3-4.5-6.9-8.8-6.9c-6.8,0-10.7,5.5-10.7,12.1c0,6.6,3.9,12.1,10.7,12.1c5,0,8.9-4.5,9.2-9.3h1.6
		c-0.6,6.1-5.1,10.6-10.8,10.6c-7.7,0-12.3-6-12.3-13.5c0-7.5,4.5-13.5,12.3-13.5c9.1,0,10.3,7.9,10.3,8.3H258.9z"/>
	<polygon points="282.4,402 282.4,403.4 264.9,403.4 264.9,377.6 282.3,377.6 282.3,379 266.5,379 266.5,389.3 281.3,389.3 
		281.3,390.7 266.5,390.7 266.5,402 	"/>
	<path d="M308.1,402.6c6.7,0,10.6-5.5,10.6-12.1c0-6.6-3.9-12.1-10.6-12.1c-6.8,0-10.7,5.5-10.7,12.1
		C297.4,397.1,301.3,402.6,308.1,402.6 M308.1,404c-7.7,0-12.3-5.9-12.3-13.5c0-7.5,4.5-13.5,12.3-13.5c7.7,0,12.2,6,12.2,13.5
		C320.3,398,315.8,404,308.1,404"/>
	<polygon points="326.2,390.7 326.2,403.4 324.6,403.4 324.6,377.6 340.8,377.6 340.8,379 326.2,379 326.2,389.3 339.3,389.3 
		339.3,390.7 	"/>
	<path d="M371.8,385c-0.2-4.4-3.5-6.6-8.3-6.6c-2.9,0-7.1,1.2-7.1,5.5c0,4.2,4.4,4.8,8.8,5.7c4.4,0.9,8.8,2,8.8,7.1
		c0,5.3-5.1,7.3-9.1,7.3c-6,0-10.9-2.5-10.9-9.1h1.6c-0.3,5.6,4.2,7.8,9.3,7.8c3.1,0,7.5-1.4,7.5-5.9c0-4.4-4.4-5.1-8.8-6
		c-4.4-0.9-8.8-1.9-8.8-6.9c0-4.9,4.6-6.9,8.7-6.9c5.4,0,9.6,2.3,9.9,8H371.8z"/>
	<rect x="378.4" y="377.6" width="1.6" height="25.8"/>
	<polygon points="385.4,377.6 387.7,377.6 397.8,401.6 397.8,401.6 407.8,377.6 410.1,377.6 410.1,403.4 408.5,403.4 408.5,379.6 
		408.4,379.6 398.6,403.4 397,403.4 387.1,379.6 387,379.6 387,403.4 385.4,403.4 	"/>
	<path d="M417.2,390.5h9.1c4.7,0,6.2-3.1,6.2-5.7c0-1.9-0.9-5.8-6-5.8h-9.3V390.5z M415.6,377.6h11c2.9,0,7.5,1,7.5,7.2
		c0,4.5-3,7.1-8.1,7.1h-8.8v11.5h-1.6V377.6z"/>
	<polygon points="437.3,377.6 438.9,377.6 438.9,402 453.5,402 453.5,403.4 437.3,403.4 	"/>
	<rect x="456.3" y="377.6" width="1.6" height="25.8"/>
	<path d="M483.3,385.3c-0.7-4.3-4.5-6.9-8.8-6.9c-6.7,0-10.7,5.5-10.7,12.1c0,6.6,3.9,12.1,10.7,12.1c5,0,8.9-4.5,9.2-9.3h1.6
		c-0.6,6.1-5.1,10.6-10.8,10.6c-7.7,0-12.3-6-12.3-13.5c0-7.5,4.5-13.5,12.3-13.5c9.1,0,10.3,7.9,10.4,8.3H483.3z"/>
	<rect x="489.3" y="377.6" width="1.6" height="25.8"/>
	<polygon points="493.6,379 493.6,377.6 513.4,377.6 513.4,379 504.3,379 504.3,403.4 502.7,403.4 502.7,379 	"/>
	<polygon points="535.1,377.6 536.9,377.6 526.5,392.6 526.5,403.4 524.9,403.4 524.9,392.6 514.6,377.6 516.4,377.6 525.8,391.3 	
		"/>
</g>
</svg>
